PathFileType	4	(x/y/z)	S08_P20_T14
DataRate	CameraRate	NumFrames	NumMarkers	Units	OrigDataRate	OrigDataStartFrame	OrigNumFrames
240	240	4	51	mm	240	1	394
Frame#	Time	Sternum			R.Acromium			L.Acromium			Top.Head			R.ASIS			L.ASIS			R.PSIS			L.PSIS			R.Great.Tro			L.Great.Tro			R.Iliac.Crest			L.Iliac.Crest			V.Sacral			R.Thigh.Upper.Post			R.Thigh.Lower.Ant			R.Thigh.Lower.Post			R.Thigh.Upper.Ant			R.Knee.Lat			R.Knee.Med			R.Shank.Upper.Post			R.Shank.Lower.Ant			R.Shank.Lower.Post			R.Shank.Upper.Ant			R.Ankle.Lat			R.Ankle.Med			R.Heel.Upper			R.Heel.Med			R.Heel.Lat			R.Toe.Lat			R.Toe.Med			R.Toe.Tip			L.Thigh.Upper.Post			L.Thigh.Lower.Ant			L.Thigh.Lower.Post			L.Thigh.Upper.Ant			L.Knee.Lat			L.Knee.Med			L.Shank.Upper.Post			L.Shank.Lower.Ant			L.Shank.Lower.Post			L.Shank.Upper.Ant			L.Ankle.Lat			L.Ankle.Med			L.Heel.Upper			L.Heel.Med			L.Heel.Lat			L.Toe.Lat			L.Toe.Med			L.Toe.Tip			Cervical.Spine			Back			
		X1	Y1	Z1	X2	Y2	Z2	X3	Y3	Z3	X4	Y4	Z4	X5	Y5	Z5	X6	Y6	Z6	X7	Y7	Z7	X8	Y8	Z8	X9	Y9	Z9	X10	Y10	Z10	X11	Y11	Z11	X12	Y12	Z12	X13	Y13	Z13	X14	Y14	Z14	X15	Y15	Z15	X16	Y16	Z16	X17	Y17	Z17	X18	Y18	Z18	X19	Y19	Z19	X20	Y20	Z20	X21	Y21	Z21	X22	Y22	Z22	X23	Y23	Z23	X24	Y24	Z24	X25	Y25	Z25	X26	Y26	Z26	X27	Y27	Z27	X28	Y28	Z28	X29	Y29	Z29	X30	Y30	Z30	X31	Y31	Z31	X32	Y32	Z32	X33	Y33	Z33	X34	Y34	Z34	X35	Y35	Z35	X36	Y36	Z36	X37	Y37	Z37	X38	Y38	Z38	X39	Y39	Z39	X40	Y40	Z40	X41	Y41	Z41	X42	Y42	Z42	X43	Y43	Z43	X44	Y44	Z44	X45	Y45	Z45	X46	Y46	Z46	X47	Y47	Z47	X48	Y48	Z48	X49	Y49	Z49	X50	Y50	Z50	X51	Y51	Z51	

1	0	NaN	NaN	NaN	-1480.6	1465.3	498.65	-1512.6	1493.1	164.63	-1475.3	1782.8	350.65	NaN	NaN	NaN	NaN	NaN	NaN	NaN	NaN	NaN	NaN	NaN	NaN	-1514.7	1086.6	473.63	-1490.8	909.47	128.11	-1504.3	911.77	499.27	-1516.1	1099.9	167.33	-1633.2	999.6	304.29	-1566.8	720.79	477.71	NaN	NaN	NaN	NaN	NaN	NaN	-1488.3	702.38	462.72	-1579.9	522.8	431.03	-1597.1	534.1	302.63	-1683.7	355.07	427.43	NaN	NaN	NaN	-1708.1	284.49	414.65	NaN	NaN	NaN	-1746.7	122.28	370.24	-1704.4	133.44	290.95	-1797.2	87.074	324.26	-1784.9	58.274	297.18	-1792.5	62.116	358.13	-1618	37.885	404.45	-1598	52.931	285.65	-1533.7	59.662	332.63	-1425.3	698.97	144.79	-1306.8	653.8	163.34	-1375.5	625.55	160.38	-1356.2	725.89	141.56	-1318.8	544.44	179.23	-1309.7	544.27	303.64	-1331.3	357.63	181.02	-1242.2	290.05	195.45	-1316	286.43	196.24	-1264.3	361.64	180.36	-1250.4	120.9	206.02	-1221.1	138.05	292.67	-1289.6	78.07	258.67	-1265.1	54.29	291.78	-1275.7	54.095	228.54	-1106.5	87.892	184.93	-1082.7	107.15	294.59	-1029.7	140.43	244.37	-1568.3	1526.1	333.14	-1620.1	1245	337.93
2	0.0041667	NaN	NaN	NaN	-1475.7	1464.4	498.44	-1507.9	1492.2	164.4	-1470.7	1782	350.4	NaN	NaN	NaN	NaN	NaN	NaN	NaN	NaN	NaN	NaN	NaN	NaN	-1509.7	1085.8	473.35	-1485.6	908.55	127.88	-1499.6	911.05	499.08	-1510.3	1098.8	166.87	-1628	998.74	303.85	-1562.5	720.23	477.65	NaN	NaN	NaN	NaN	NaN	NaN	-1484	701.73	462.73	-1576.5	522.41	431.06	-1593.2	533.59	302.59	-1680.7	355.08	427.74	-1645.7	284.2	408.16	-1706.5	285.13	414.9	NaN	NaN	NaN	-1746.2	122.96	370.39	-1704.6	134.03	291.5	-1796.9	87.992	324.46	-1784.7	59.183	297.3	-1792.4	62.934	358.26	-1617.9	37.798	404.49	-1598	52.903	285.73	-1533.7	59.413	332.72	-1420.9	697.96	144.79	-1302.6	652.58	163.57	-1371.4	624.49	160.65	-1351.7	724.68	141.45	-1315	543.23	179.55	-1305.7	543.36	304.44	-1326.1	356.23	181.65	-1236.5	289.32	196.17	-1310.3	285.15	196.92	-1259.1	360.69	181.02	-1243.2	120.12	206.96	-1214.3	137.48	293.63	-1282.2	76.857	259.59	-1257.5	53.255	292.72	-1268	53.063	229.45	-1099.1	88.427	186	-1075.6	107.9	295.67	-1022.8	141.29	245.08	-1563.5	1525.2	332.92	-1615.1	1244.1	337.73
3	0.0083333	NaN	NaN	NaN	-1470.6	1463.5	498.21	-1502.9	1491.2	164.15	-1465.9	1781.2	350.15	NaN	NaN	NaN	NaN	NaN	NaN	NaN	NaN	NaN	NaN	NaN	NaN	-1504.5	1084.9	473.06	-1480.2	907.61	127.65	-1494.7	910.31	498.89	-1504.2	1097.7	166.4	-1622.6	997.87	303.4	-1557.9	719.63	477.58	NaN	NaN	NaN	NaN	NaN	NaN	-1479.5	701.05	462.74	-1572.9	521.99	431.09	-1589.1	533.06	302.56	-1677.6	355.15	428.04	-1643.4	284.27	408.08	-1704.8	285.78	415.15	NaN	NaN	NaN	-1745.6	123.69	370.55	-1704.8	134.66	292.07	-1796.6	88.99	324.67	-1784.6	60.174	297.43	-1792.2	63.822	358.39	-1617.9	37.706	404.53	-1598	52.877	285.8	-1533.6	59.156	332.81	-1416.2	696.93	144.81	-1298.1	651.32	163.81	-1367	623.41	160.94	-1347	723.44	141.36	-1311.1	541.98	179.9	-1301.6	542.41	305.23	-1320.7	354.79	182.3	-1230.7	288.52	196.94	-1304.4	283.84	197.63	-1253.8	359.69	181.72	-1236	119.29	207.94	-1207.4	136.84	294.64	-1274.8	75.626	260.54	-1249.8	52.184	293.7	-1260.2	52.01	230.39	-1091.7	88.861	187.15	-1068.5	108.53	296.83	-1015.9	142.01	245.89	-1558.5	1524.3	332.67	-1609.9	1243.1	337.51
4	0.0125	NaN	NaN	NaN	-1465.3	1462.6	497.97	-1497.8	1490.2	163.87	-1461	1780.3	349.88	NaN	NaN	NaN	NaN	NaN	NaN	NaN	NaN	NaN	NaN	NaN	NaN	-1499.1	1084	472.76	-1474.6	906.65	127.42	-1489.7	909.56	498.68	-1497.9	1096.5	165.91	-1617	996.98	302.94	-1553.2	719.01	477.5	NaN	NaN	NaN	NaN	NaN	NaN	-1474.8	700.35	462.74	-1569.1	521.55	431.13	-1584.8	532.5	302.52	-1674.3	355.28	428.34	-1640.9	284.37	407.98	-1702.9	286.45	415.42	NaN	NaN	NaN	-1744.9	124.47	370.73	-1704.9	135.32	292.66	-1796.2	90.075	324.91	-1784.4	61.253	297.57	-1792	64.784	358.54	-1617.8	37.607	404.57	-1598	52.854	285.88	-1533.6	58.893	332.89	-1411.4	695.87	144.85	-1293.5	650.03	164.07	-1362.4	622.31	161.26	-1342.2	722.17	141.29	-1306.9	540.7	180.27	-1297.4	541.45	306.02	-1315.3	353.32	182.96	-1224.9	287.66	197.74	-1298.5	282.49	198.35	-1248.4	358.64	182.45	-1228.9	118.41	208.95	-1200.5	136.14	295.69	-1267.4	74.395	261.53	-1242.2	51.087	294.7	-1252.6	50.949	231.36	-1084.3	89.164	188.35	-1061.4	109	298.05	-1009	142.58	246.82	-1553.3	1523.5	332.41	-1604.5	1242.1	337.28
